<svg width="1024" height="1024" viewBox="0 0 1024 1024" fill="none" xmlns="http://www.w3.org/2000/svg">
<rect width="1024" height="1024" fill="#0F121F"/>
<path d="M388.882 628.407C366.169 600.662 344.938 567.468 332.273 533.592C317.982 495.367 344.766 450.613 364.355 419.491C376.654 399.951 392.233 379.461 410.729 365.304C442.947 340.645 491.698 344.889 529.243 350.523C577.252 357.728 617.284 377.645 655.4 406.998C676.36 423.141 698.039 440.784 713.203 462.82C731.588 489.535 742.451 521.244 747.987 552.963C761.56 630.732 735.104 724.714 700.976 767.392C679.81 793.861 652.289 824.016 623.613 832.224C601.531 843.499 562.615 855.866 558.735 841.541" stroke="url(#paint0_linear_312_586)" stroke-width="50" stroke-linecap="round"/>
<path d="M451.108 521.29C460.288 529.622 475.87 539.377 481.058 551.134C485.802 561.883 494.833 575.434 496.034 587.286C497.28 599.579 496.243 612.421 497.783 624.888C499.073 635.324 498.014 642.656 493.744 652.192C481.87 678.712 468.223 710.98 439.106 722.28C436.208 723.405 433.442 724.435 430.214 723.74C421.485 721.859 411.299 725.72 402.357 726.486C396.656 726.974 387.283 724.236 381.825 722.706C356.678 715.657 331.174 708.292 307.824 696.467C281.492 683.132 261.041 664.642 239.637 644.675C211.305 618.247 203.367 586.724 196.571 550.379C192.242 527.224 195.317 500.453 199.797 477.493C205.862 446.404 217.196 411.379 233.774 384.311C263.409 335.924 294.788 284.962 332.999 242.859C363.707 209.022 398.609 185.063 445.725 185.97C475.898 186.551 505.941 200.105 535.022 206.472C556.082 211.082 576.773 216.838 596.877 224.631C620.151 233.652 636.986 246.036 655.364 262.715C675.054 280.584 697.563 298.235 713.727 319.464C718.024 325.108 743.325 342.31 741.582 348.528" stroke="url(#paint1_linear_312_586)" stroke-width="50" stroke-linecap="round"/>
<circle cx="822.845" cy="476.845" r="27.5" transform="rotate(42.2247 822.845 476.845)" fill="#DBDBDB"/>
<circle cx="625.862" cy="597.943" r="27.5" transform="rotate(42.2247 625.862 597.943)" fill="#C3C6D4"/>
<circle cx="513.608" cy="458.257" r="27.5" transform="rotate(42.2247 513.608 458.257)" fill="#61C2FF"/>
<circle cx="431.844" cy="261.166" r="27.5" transform="rotate(42.2247 431.844 261.166)" fill="#DBCA2F"/>
<circle cx="475.898" cy="804.85" r="27.5" transform="rotate(42.2247 475.898 804.85)" fill="#F8A82F"/>
<defs>
<linearGradient id="paint0_linear_312_586" x1="675.6" y1="422.814" x2="401.67" y2="724.654" gradientUnits="userSpaceOnUse">
<stop stop-color="#0690E6"/>
<stop offset="0.552083" stop-color="#343C65"/>
<stop offset="1" stop-color="#262C4A"/>
</linearGradient>
<linearGradient id="paint1_linear_312_586" x1="619.79" y1="229.847" x2="241.569" y2="646.604" gradientUnits="userSpaceOnUse">
<stop stop-color="#0690E6"/>
<stop offset="0.552083" stop-color="#343C65"/>
<stop offset="1" stop-color="#262C4A"/>
</linearGradient>
</defs>
</svg>
